# xmcd CD database file
#
# Track frame offsets:
#	150
#	19467
#	43112
#
# Disc length: 897 seconds
#
# Revision: 0
# Processed by: cddbd v1.5.1PL0 Copyright (c) Steve Scherf et al.
# Submitted via: CDex 1.51
#
DISCID=22037f03
DTITLE=wyolica - 悲しいわがまま
DYEAR=1999
DGENRE=Pop
TTITLE0=悲しいわがまま
TTITLE1=悲しいわがまま（One Love Ninety Nine featuring Suiken)
TTITLE2=ラララ
EXTD=YEAR: 1999
EXTT0=
EXTT1=
EXTT2=
PLAYORDER=
